<?xml version="1.0" encoding="UTF-8" standalone="no"?>
<!DOCTYPE svg PUBLIC "-//W3C//DTD SVG 1.1//EN" "http://www.w3.org/Graphics/SVG/1.1/DTD/svg11.dtd">
<!-- Created with Vectornator (http://vectornator.io/) -->
<svg height="100%" stroke-miterlimit="10" style="fill-rule:nonzero;clip-rule:evenodd;stroke-linecap:round;stroke-linejoin:round;" version="1.1" viewBox="0 0 1024 162.521" width="100%" xml:space="preserve" xmlns="http://www.w3.org/2000/svg" xmlns:vectornator="http://vectornator.io" xmlns:xlink="http://www.w3.org/1999/xlink">
<defs>
<path d="M3.58474 20.9801L67.0444 20.9801L67.0444 150.972L3.58474 150.972L3.58474 20.9801Z" id="Fill"/>
<path d="M382.323 25.4383L445.782 25.4383L445.782 155.43L382.323 155.43L382.323 25.4383Z" id="Fill_2"/>
<path d="M508.964 24.9095L571.347 24.9095L571.347 154.901L508.964 154.901L508.964 24.9095Z" id="Fill_3"/>
<path d="M91.2053 21.0758L91.0132 67.1405L62.2077 67.0324L62.3999 20.9676L91.2053 21.0758Z" id="Fill_4"/>
<path d="M91.1419 70.7635L90.9497 116.692L62.1442 116.585L62.3364 70.6557L91.1419 70.7635Z" id="Fill_5"/>
<path d="M544.31 99.5808L599.641 99.6332L599.584 154.952L544.253 154.899L544.31 99.5808Z" id="Fill_6"/>
<path d="M94.6607 87.4592C94.6607 50.413 125.977 20.3812 164.608 20.3812C203.238 20.3812 234.554 50.413 234.554 87.4592C234.554 124.505 203.238 154.537 164.608 154.537C125.977 154.537 94.6607 124.505 94.6607 87.4592Z" id="Fill_7"/>
<path d="M238.593 90.2479C238.593 53.2018 269.909 23.17 308.54 23.17C347.171 23.17 378.487 53.2018 378.487 90.2479C378.487 127.294 347.171 157.326 308.54 157.326C269.909 157.326 238.593 127.294 238.593 90.2479Z" id="Fill_8"/>
<path d="M603.493 88.9318C603.493 51.8857 634.809 21.8538 673.44 21.8538C712.07 21.8538 743.387 51.8857 743.387 88.9318C743.387 125.978 712.07 156.01 673.44 156.01C634.809 156.01 603.493 125.978 603.493 88.9318Z" id="Fill_9"/>
<path d="M747.188 89.1137C747.188 52.0675 778.504 22.0357 817.135 22.0357C855.765 22.0357 887.082 52.0675 887.082 89.1137C887.082 126.16 855.765 156.192 817.135 156.192C778.504 156.192 747.188 126.16 747.188 89.1137Z" id="Fill_10"/>
<path d="M388.626 90.5475C388.626 54.6051 414.497 25.468 446.411 25.468C478.325 25.468 504.196 54.6051 504.196 90.5475C504.196 126.49 478.325 155.627 446.411 155.627C414.497 155.627 388.626 126.49 388.626 90.5475Z" id="Fill_11"/>
<path d="M832.584 85.5846L869.835 42.8253L925.439 77.8609L888.188 120.62L832.584 85.5846Z" id="Fill_12"/>
<path d="M881.879 87.1191C881.879 50.073 913.196 20.0411 951.826 20.0411C990.457 20.0411 1021.77 50.073 1021.77 87.1191C1021.77 124.165 990.457 154.197 951.826 154.197C913.196 154.197 881.879 124.165 881.879 87.1191Z" id="Fill_13"/>
</defs>
<g id="Ebene-1" vectornator:layerName="Ebene 1">
<g opacity="1">
<use fill="#0a183d" fill-rule="nonzero" stroke="none" xlink:href="#Fill"/>
<mask height="129.992" id="StrokeMask" maskUnits="userSpaceOnUse" width="63.4597" x="3.58474" y="20.9801">
<rect fill="#000000" height="129.992" stroke="none" width="63.4597" x="3.58474" y="20.9801"/>
<use fill="#ffffff" fill-rule="evenodd" stroke="none" xlink:href="#Fill"/>
</mask>
<use fill="none" mask="url(#StrokeMask)" stroke="#0a183d" stroke-linecap="butt" stroke-linejoin="round" stroke-width="20" xlink:href="#Fill"/>
</g>
<g opacity="1">
<use fill="#0a183d" fill-rule="nonzero" stroke="none" xlink:href="#Fill_2"/>
<mask height="129.992" id="StrokeMask_2" maskUnits="userSpaceOnUse" width="63.4597" x="382.323" y="25.4383">
<rect fill="#000000" height="129.992" stroke="none" width="63.4597" x="382.323" y="25.4383"/>
<use fill="#ffffff" fill-rule="evenodd" stroke="none" xlink:href="#Fill_2"/>
</mask>
<use fill="none" mask="url(#StrokeMask_2)" stroke="#0a183d" stroke-linecap="round" stroke-linejoin="round" stroke-width="20" xlink:href="#Fill_2"/>
</g>
<g opacity="1">
<use fill="#0a183d" fill-rule="nonzero" stroke="none" xlink:href="#Fill_3"/>
<mask height="129.992" id="StrokeMask_3" maskUnits="userSpaceOnUse" width="62.3831" x="508.964" y="24.9095">
<rect fill="#000000" height="129.992" stroke="none" width="62.3831" x="508.964" y="24.9095"/>
<use fill="#ffffff" fill-rule="evenodd" stroke="none" xlink:href="#Fill_3"/>
</mask>
<use fill="none" mask="url(#StrokeMask_3)" stroke="#0a183d" stroke-linecap="round" stroke-linejoin="round" stroke-width="20" xlink:href="#Fill_3"/>
</g>
<g opacity="1">
<use fill="#0a183d" fill-rule="nonzero" stroke="none" xlink:href="#Fill_4"/>
<mask height="46.1729" id="StrokeMask_4" maskUnits="userSpaceOnUse" width="28.9977" x="62.2077" y="20.9676">
<rect fill="#000000" height="46.1729" stroke="none" width="28.9977" x="62.2077" y="20.9676"/>
<use fill="#ffffff" fill-rule="evenodd" stroke="none" xlink:href="#Fill_4"/>
</mask>
<use fill="none" mask="url(#StrokeMask_4)" stroke="#0a183d" stroke-linecap="butt" stroke-linejoin="round" stroke-width="20.4694" xlink:href="#Fill_4"/>
</g>
<g opacity="1">
<use fill="#0a183d" fill-rule="nonzero" stroke="none" xlink:href="#Fill_5"/>
<mask height="46.0367" id="StrokeMask_5" maskUnits="userSpaceOnUse" width="28.9977" x="62.1442" y="70.6557">
<rect fill="#000000" height="46.0367" stroke="none" width="28.9977" x="62.1442" y="70.6557"/>
<use fill="#ffffff" fill-rule="evenodd" stroke="none" xlink:href="#Fill_5"/>
</mask>
<use fill="none" mask="url(#StrokeMask_5)" stroke="#0a183d" stroke-linecap="butt" stroke-linejoin="round" stroke-width="20.4694" xlink:href="#Fill_5"/>
</g>
<g opacity="1">
<use fill="#0a183d" fill-rule="nonzero" stroke="none" xlink:href="#Fill_6"/>
<mask height="55.3707" id="StrokeMask_6" maskUnits="userSpaceOnUse" width="55.3887" x="544.253" y="99.5808">
<rect fill="#000000" height="55.3707" stroke="none" width="55.3887" x="544.253" y="99.5808"/>
<use fill="#ffffff" fill-rule="evenodd" stroke="none" xlink:href="#Fill_6"/>
</mask>
<use fill="none" mask="url(#StrokeMask_6)" stroke="#0a183d" stroke-linecap="butt" stroke-linejoin="round" stroke-width="20.4694" xlink:href="#Fill_6"/>
</g>
<g opacity="1">
<use fill="#0a183d" fill-rule="nonzero" stroke="none" xlink:href="#Fill_7"/>
<mask height="134.156" id="StrokeMask_7" maskUnits="userSpaceOnUse" width="139.894" x="94.6607" y="20.3812">
<rect fill="#000000" height="134.156" stroke="none" width="139.894" x="94.6607" y="20.3812"/>
<use fill="#ffffff" fill-rule="evenodd" stroke="none" xlink:href="#Fill_7"/>
</mask>
<use fill="none" mask="url(#StrokeMask_7)" stroke="#0a183d" stroke-linecap="butt" stroke-linejoin="round" stroke-width="20" xlink:href="#Fill_7"/>
</g>
<g opacity="1">
<use fill="#0a183d" fill-rule="nonzero" stroke="none" xlink:href="#Fill_8"/>
<mask height="134.156" id="StrokeMask_8" maskUnits="userSpaceOnUse" width="139.894" x="238.593" y="23.17">
<rect fill="#000000" height="134.156" stroke="none" width="139.894" x="238.593" y="23.17"/>
<use fill="#ffffff" fill-rule="evenodd" stroke="none" xlink:href="#Fill_8"/>
</mask>
<use fill="none" mask="url(#StrokeMask_8)" stroke="#0a183d" stroke-linecap="butt" stroke-linejoin="round" stroke-width="20" xlink:href="#Fill_8"/>
</g>
<g opacity="1">
<use fill="#0a183d" fill-rule="nonzero" stroke="none" xlink:href="#Fill_9"/>
<mask height="134.156" id="StrokeMask_9" maskUnits="userSpaceOnUse" width="139.894" x="603.493" y="21.8538">
<rect fill="#000000" height="134.156" stroke="none" width="139.894" x="603.493" y="21.8538"/>
<use fill="#ffffff" fill-rule="evenodd" stroke="none" xlink:href="#Fill_9"/>
</mask>
<use fill="none" mask="url(#StrokeMask_9)" stroke="#0a183d" stroke-linecap="butt" stroke-linejoin="round" stroke-width="20" xlink:href="#Fill_9"/>
</g>
<g opacity="1">
<use fill="#0a183d" fill-rule="nonzero" stroke="none" xlink:href="#Fill_10"/>
<mask height="134.156" id="StrokeMask_10" maskUnits="userSpaceOnUse" width="139.894" x="747.188" y="22.0357">
<rect fill="#000000" height="134.156" stroke="none" width="139.894" x="747.188" y="22.0357"/>
<use fill="#ffffff" fill-rule="evenodd" stroke="none" xlink:href="#Fill_10"/>
</mask>
<use fill="none" mask="url(#StrokeMask_10)" stroke="#0a183d" stroke-linecap="butt" stroke-linejoin="round" stroke-width="20" xlink:href="#Fill_10"/>
</g>
<g opacity="1">
<use fill="#0a183d" fill-rule="nonzero" stroke="none" xlink:href="#Fill_11"/>
<mask height="130.159" id="StrokeMask_11" maskUnits="userSpaceOnUse" width="115.571" x="388.626" y="25.468">
<rect fill="#000000" height="130.159" stroke="none" width="115.571" x="388.626" y="25.468"/>
<use fill="#ffffff" fill-rule="evenodd" stroke="none" xlink:href="#Fill_11"/>
</mask>
<use fill="none" mask="url(#StrokeMask_11)" stroke="#0a183d" stroke-linecap="butt" stroke-linejoin="round" stroke-width="20" xlink:href="#Fill_11"/>
</g>
<g opacity="1">
<use fill="#eff1f4" fill-rule="nonzero" stroke="none" xlink:href="#Fill_12"/>
<mask height="77.7949" id="StrokeMask_12" maskUnits="userSpaceOnUse" width="92.8551" x="832.584" y="42.8253">
<rect fill="#000000" height="77.7949" stroke="none" width="92.8551" x="832.584" y="42.8253"/>
<use fill="#ffffff" fill-rule="evenodd" stroke="none" xlink:href="#Fill_12"/>
</mask>
<use fill="none" mask="url(#StrokeMask_12)" stroke="#eff1f4" stroke-linecap="round" stroke-linejoin="round" stroke-width="20" xlink:href="#Fill_12"/>
</g>
<g opacity="1">
<use fill="#0a183d" fill-rule="nonzero" stroke="none" xlink:href="#Fill_13"/>
<mask height="134.156" id="StrokeMask_13" maskUnits="userSpaceOnUse" width="139.894" x="881.879" y="20.0411">
<rect fill="#000000" height="134.156" stroke="none" width="139.894" x="881.879" y="20.0411"/>
<use fill="#ffffff" fill-rule="evenodd" stroke="none" xlink:href="#Fill_13"/>
</mask>
<use fill="none" mask="url(#StrokeMask_13)" stroke="#0a183d" stroke-linecap="butt" stroke-linejoin="round" stroke-width="20" xlink:href="#Fill_13"/>
</g>
</g>
</svg>
